<?xml version="1.0" encoding="UTF-8"?>
<svg width="192" height="192" viewBox="0 0 192 192" fill="none" xmlns="http://www.w3.org/2000/svg">
  <rect width="192" height="192" fill="#1E40AF"/>
  <path d="M48 96C48 69.49 69.49 48 96 48C122.51 48 144 69.49 144 96C144 122.51 122.51 144 96 144C69.49 144 48 122.51 48 96Z" fill="white"/>
  <path d="M96 60C76.118 60 60 76.118 60 96C60 115.882 76.118 132 96 132C115.882 132 132 115.882 132 96C132 76.118 115.882 60 96 60ZM96 120C82.745 120 72 109.255 72 96C72 82.745 82.745 72 96 72C109.255 72 120 82.745 120 96C120 109.255 109.255 120 96 120Z" fill="#1E40AF"/>
  <path d="M96 84C89.373 84 84 89.373 84 96C84 102.627 89.373 108 96 108C102.627 108 108 102.627 108 96C108 89.373 102.627 84 96 84Z" fill="#1E40AF"/>
</svg>